<mxfile host="app.diagrams.net" agent="Mozilla/5.0 (Windows NT 10.0; Win64; x64; rv:137.0) Gecko/20100101 Firefox/137.0" version="26.2.9">
  <diagram name="Page-1" id="PKuxj-kQF3zY9M0Z0oCe">
    <mxGraphModel dx="980" dy="611" grid="1" gridSize="10" guides="1" tooltips="1" connect="1" arrows="1" fold="1" page="1" pageScale="1" pageWidth="1100" pageHeight="850" math="0" shadow="0">
      <root>
        <mxCell id="0" />
        <mxCell id="1" parent="0" />
        <mxCell id="wSDJM-9C2P7-PzqC946q-3" value="" style="group" vertex="1" connectable="0" parent="1">
          <mxGeometry x="110" y="285" width="60" height="295" as="geometry" />
        </mxCell>
        <mxCell id="wSDJM-9C2P7-PzqC946q-1" value="" style="rounded=0;whiteSpace=wrap;html=1;" vertex="1" parent="wSDJM-9C2P7-PzqC946q-3">
          <mxGeometry width="60" height="295" as="geometry" />
        </mxCell>
        <mxCell id="wSDJM-9C2P7-PzqC946q-2" value="Radiator" style="text;html=1;align=center;verticalAlign=middle;whiteSpace=wrap;rounded=0;rotation=90;" vertex="1" parent="wSDJM-9C2P7-PzqC946q-3">
          <mxGeometry y="131.69642857142858" width="60" height="31.607142857142858" as="geometry" />
        </mxCell>
        <mxCell id="wSDJM-9C2P7-PzqC946q-6" value="" style="group;rotation=90;" vertex="1" connectable="0" parent="1">
          <mxGeometry x="200" y="490" width="120" height="65" as="geometry" />
        </mxCell>
        <mxCell id="wSDJM-9C2P7-PzqC946q-4" value="" style="rounded=0;whiteSpace=wrap;html=1;rotation=90;" vertex="1" parent="wSDJM-9C2P7-PzqC946q-6">
          <mxGeometry width="120" height="65" as="geometry" />
        </mxCell>
        <mxCell id="wSDJM-9C2P7-PzqC946q-5" value="&lt;div&gt;Manifold&lt;/div&gt;" style="text;html=1;align=center;verticalAlign=middle;whiteSpace=wrap;rounded=0;rotation=90;" vertex="1" parent="wSDJM-9C2P7-PzqC946q-6">
          <mxGeometry x="30" y="18" width="60" height="30" as="geometry" />
        </mxCell>
        <mxCell id="wSDJM-9C2P7-PzqC946q-9" value="" style="group" vertex="1" connectable="0" parent="1">
          <mxGeometry x="370" y="440" width="120" height="60" as="geometry" />
        </mxCell>
        <mxCell id="wSDJM-9C2P7-PzqC946q-7" value="" style="rounded=0;whiteSpace=wrap;html=1;" vertex="1" parent="wSDJM-9C2P7-PzqC946q-9">
          <mxGeometry width="120" height="60" as="geometry" />
        </mxCell>
        <mxCell id="wSDJM-9C2P7-PzqC946q-8" value="&lt;div&gt;Pump&lt;/div&gt;" style="text;html=1;align=center;verticalAlign=middle;whiteSpace=wrap;rounded=0;" vertex="1" parent="wSDJM-9C2P7-PzqC946q-9">
          <mxGeometry x="30" y="15" width="60" height="30" as="geometry" />
        </mxCell>
        <mxCell id="wSDJM-9C2P7-PzqC946q-10" value="" style="group" vertex="1" connectable="0" parent="1">
          <mxGeometry x="370" y="520" width="120" height="60" as="geometry" />
        </mxCell>
        <mxCell id="wSDJM-9C2P7-PzqC946q-11" value="" style="rounded=0;whiteSpace=wrap;html=1;" vertex="1" parent="wSDJM-9C2P7-PzqC946q-10">
          <mxGeometry width="120" height="60" as="geometry" />
        </mxCell>
        <mxCell id="wSDJM-9C2P7-PzqC946q-12" value="&lt;div&gt;Pump&lt;/div&gt;" style="text;html=1;align=center;verticalAlign=middle;whiteSpace=wrap;rounded=0;" vertex="1" parent="wSDJM-9C2P7-PzqC946q-10">
          <mxGeometry x="30" y="15" width="60" height="30" as="geometry" />
        </mxCell>
        <mxCell id="wSDJM-9C2P7-PzqC946q-15" value="" style="group;rotation=90;" vertex="1" connectable="0" parent="1">
          <mxGeometry x="200" y="310" width="120" height="65" as="geometry" />
        </mxCell>
        <mxCell id="wSDJM-9C2P7-PzqC946q-16" value="" style="rounded=0;whiteSpace=wrap;html=1;rotation=90;" vertex="1" parent="wSDJM-9C2P7-PzqC946q-15">
          <mxGeometry width="120" height="65" as="geometry" />
        </mxCell>
        <mxCell id="wSDJM-9C2P7-PzqC946q-17" value="&lt;div&gt;Manifold&lt;/div&gt;" style="text;html=1;align=center;verticalAlign=middle;whiteSpace=wrap;rounded=0;rotation=90;" vertex="1" parent="wSDJM-9C2P7-PzqC946q-15">
          <mxGeometry x="30" y="18" width="60" height="30" as="geometry" />
        </mxCell>
        <mxCell id="wSDJM-9C2P7-PzqC946q-20" value="" style="group" vertex="1" connectable="0" parent="1">
          <mxGeometry x="360" y="285" width="120" height="60" as="geometry" />
        </mxCell>
        <mxCell id="wSDJM-9C2P7-PzqC946q-18" value="" style="rounded=0;whiteSpace=wrap;html=1;" vertex="1" parent="wSDJM-9C2P7-PzqC946q-20">
          <mxGeometry width="120" height="60" as="geometry" />
        </mxCell>
        <mxCell id="wSDJM-9C2P7-PzqC946q-19" value="Overflow" style="text;html=1;align=center;verticalAlign=middle;whiteSpace=wrap;rounded=0;" vertex="1" parent="wSDJM-9C2P7-PzqC946q-20">
          <mxGeometry x="30" y="15" width="60" height="30" as="geometry" />
        </mxCell>
        <mxCell id="wSDJM-9C2P7-PzqC946q-23" value="" style="group" vertex="1" connectable="0" parent="1">
          <mxGeometry x="900" y="365" width="120" height="60" as="geometry" />
        </mxCell>
        <mxCell id="wSDJM-9C2P7-PzqC946q-21" value="" style="rounded=0;whiteSpace=wrap;html=1;" vertex="1" parent="wSDJM-9C2P7-PzqC946q-23">
          <mxGeometry width="120" height="60" as="geometry" />
        </mxCell>
        <mxCell id="wSDJM-9C2P7-PzqC946q-22" value="Batteries" style="text;html=1;align=center;verticalAlign=middle;whiteSpace=wrap;rounded=0;" vertex="1" parent="wSDJM-9C2P7-PzqC946q-23">
          <mxGeometry x="30" y="15" width="60" height="30" as="geometry" />
        </mxCell>
        <mxCell id="wSDJM-9C2P7-PzqC946q-28" value="" style="group" vertex="1" connectable="0" parent="1">
          <mxGeometry x="900" y="215" width="120" height="60" as="geometry" />
        </mxCell>
        <mxCell id="wSDJM-9C2P7-PzqC946q-26" value="" style="rounded=0;whiteSpace=wrap;html=1;" vertex="1" parent="wSDJM-9C2P7-PzqC946q-28">
          <mxGeometry width="120" height="60" as="geometry" />
        </mxCell>
        <mxCell id="wSDJM-9C2P7-PzqC946q-27" value="Charger" style="text;html=1;align=center;verticalAlign=middle;whiteSpace=wrap;rounded=0;" vertex="1" parent="wSDJM-9C2P7-PzqC946q-28">
          <mxGeometry x="30" y="15" width="60" height="30" as="geometry" />
        </mxCell>
        <mxCell id="wSDJM-9C2P7-PzqC946q-29" value="" style="group" vertex="1" connectable="0" parent="1">
          <mxGeometry x="900" y="290" width="120" height="60" as="geometry" />
        </mxCell>
        <mxCell id="wSDJM-9C2P7-PzqC946q-24" value="" style="rounded=0;whiteSpace=wrap;html=1;" vertex="1" parent="wSDJM-9C2P7-PzqC946q-29">
          <mxGeometry width="120" height="60" as="geometry" />
        </mxCell>
        <mxCell id="wSDJM-9C2P7-PzqC946q-25" value="DC-DC Converter" style="text;html=1;align=center;verticalAlign=middle;whiteSpace=wrap;rounded=0;" vertex="1" parent="wSDJM-9C2P7-PzqC946q-29">
          <mxGeometry x="30" y="15" width="60" height="30" as="geometry" />
        </mxCell>
        <mxCell id="wSDJM-9C2P7-PzqC946q-32" value="" style="group" vertex="1" connectable="0" parent="1">
          <mxGeometry x="620" y="295" width="120" height="60" as="geometry" />
        </mxCell>
        <mxCell id="wSDJM-9C2P7-PzqC946q-30" value="" style="rounded=0;whiteSpace=wrap;html=1;" vertex="1" parent="wSDJM-9C2P7-PzqC946q-32">
          <mxGeometry width="120" height="60" as="geometry" />
        </mxCell>
        <mxCell id="wSDJM-9C2P7-PzqC946q-31" value="Switched Y-Valve" style="text;html=1;align=center;verticalAlign=middle;whiteSpace=wrap;rounded=0;" vertex="1" parent="wSDJM-9C2P7-PzqC946q-32">
          <mxGeometry x="30" y="15" width="60" height="30" as="geometry" />
        </mxCell>
        <mxCell id="wSDJM-9C2P7-PzqC946q-35" value="" style="group" vertex="1" connectable="0" parent="1">
          <mxGeometry x="50" y="110" width="120" height="60" as="geometry" />
        </mxCell>
        <mxCell id="wSDJM-9C2P7-PzqC946q-33" value="" style="rounded=0;whiteSpace=wrap;html=1;" vertex="1" parent="wSDJM-9C2P7-PzqC946q-35">
          <mxGeometry width="120" height="60" as="geometry" />
        </mxCell>
        <mxCell id="wSDJM-9C2P7-PzqC946q-34" value="Coolant Heater" style="text;html=1;align=center;verticalAlign=middle;whiteSpace=wrap;rounded=0;" vertex="1" parent="wSDJM-9C2P7-PzqC946q-35">
          <mxGeometry x="30" y="15" width="60" height="30" as="geometry" />
        </mxCell>
        <mxCell id="wSDJM-9C2P7-PzqC946q-36" value="" style="group" vertex="1" connectable="0" parent="1">
          <mxGeometry x="770" y="520" width="120" height="60" as="geometry" />
        </mxCell>
        <mxCell id="wSDJM-9C2P7-PzqC946q-13" value="" style="rounded=0;whiteSpace=wrap;html=1;" vertex="1" parent="wSDJM-9C2P7-PzqC946q-36">
          <mxGeometry width="120" height="60" as="geometry" />
        </mxCell>
        <mxCell id="wSDJM-9C2P7-PzqC946q-14" value="Motor and Inverter" style="text;html=1;align=center;verticalAlign=middle;whiteSpace=wrap;rounded=0;" vertex="1" parent="wSDJM-9C2P7-PzqC946q-36">
          <mxGeometry x="30" y="15" width="60" height="30" as="geometry" />
        </mxCell>
        <mxCell id="wSDJM-9C2P7-PzqC946q-37" value="" style="endArrow=none;html=1;rounded=0;entryX=0;entryY=0.5;entryDx=0;entryDy=0;exitX=1;exitY=0.5;exitDx=0;exitDy=0;fillColor=#0050ef;strokeColor=#001DBC;" edge="1" parent="1" source="wSDJM-9C2P7-PzqC946q-11" target="wSDJM-9C2P7-PzqC946q-13">
          <mxGeometry width="50" height="50" relative="1" as="geometry">
            <mxPoint x="470" y="440" as="sourcePoint" />
            <mxPoint x="520" y="390" as="targetPoint" />
          </mxGeometry>
        </mxCell>
        <mxCell id="wSDJM-9C2P7-PzqC946q-39" value="" style="endArrow=none;html=1;rounded=0;exitX=1;exitY=0.5;exitDx=0;exitDy=0;fillColor=#e51400;strokeColor=#B20000;entryX=0;entryY=0.75;entryDx=0;entryDy=0;edgeStyle=orthogonalEdgeStyle;" edge="1" parent="1" source="wSDJM-9C2P7-PzqC946q-13" target="wSDJM-9C2P7-PzqC946q-16">
          <mxGeometry width="50" height="50" relative="1" as="geometry">
            <mxPoint x="470" y="440" as="sourcePoint" />
            <mxPoint x="950" y="550" as="targetPoint" />
            <Array as="points">
              <mxPoint x="1090" y="550" />
              <mxPoint x="1090" y="110" />
              <mxPoint x="244" y="110" />
            </Array>
          </mxGeometry>
        </mxCell>
        <mxCell id="wSDJM-9C2P7-PzqC946q-40" value="" style="endArrow=none;html=1;rounded=0;exitX=1;exitY=0.75;exitDx=0;exitDy=0;entryX=0.5;entryY=1;entryDx=0;entryDy=0;edgeStyle=orthogonalEdgeStyle;fillColor=#0050ef;strokeColor=#001DBC;" edge="1" parent="1" source="wSDJM-9C2P7-PzqC946q-1" target="wSDJM-9C2P7-PzqC946q-4">
          <mxGeometry width="50" height="50" relative="1" as="geometry">
            <mxPoint x="470" y="440" as="sourcePoint" />
            <mxPoint x="520" y="390" as="targetPoint" />
          </mxGeometry>
        </mxCell>
        <mxCell id="wSDJM-9C2P7-PzqC946q-41" value="" style="endArrow=none;html=1;rounded=0;exitX=0.25;exitY=0;exitDx=0;exitDy=0;entryX=0;entryY=0.5;entryDx=0;entryDy=0;fillColor=#0050ef;strokeColor=#001DBC;edgeStyle=orthogonalEdgeStyle;" edge="1" parent="1" source="wSDJM-9C2P7-PzqC946q-4" target="wSDJM-9C2P7-PzqC946q-7">
          <mxGeometry width="50" height="50" relative="1" as="geometry">
            <mxPoint x="470" y="440" as="sourcePoint" />
            <mxPoint x="520" y="390" as="targetPoint" />
          </mxGeometry>
        </mxCell>
        <mxCell id="wSDJM-9C2P7-PzqC946q-42" value="" style="endArrow=none;html=1;rounded=0;exitX=0.75;exitY=0;exitDx=0;exitDy=0;entryX=0;entryY=0.5;entryDx=0;entryDy=0;fillColor=#0050ef;strokeColor=#001DBC;edgeStyle=orthogonalEdgeStyle;" edge="1" parent="1" source="wSDJM-9C2P7-PzqC946q-4" target="wSDJM-9C2P7-PzqC946q-11">
          <mxGeometry width="50" height="50" relative="1" as="geometry">
            <mxPoint x="470" y="440" as="sourcePoint" />
            <mxPoint x="520" y="390" as="targetPoint" />
          </mxGeometry>
        </mxCell>
        <mxCell id="wSDJM-9C2P7-PzqC946q-45" value="" style="group" vertex="1" connectable="0" parent="1">
          <mxGeometry x="520" y="440" width="120" height="60" as="geometry" />
        </mxCell>
        <mxCell id="wSDJM-9C2P7-PzqC946q-43" value="" style="rounded=0;whiteSpace=wrap;html=1;" vertex="1" parent="wSDJM-9C2P7-PzqC946q-45">
          <mxGeometry width="120" height="60" as="geometry" />
        </mxCell>
        <mxCell id="wSDJM-9C2P7-PzqC946q-44" value="Y-Fitting" style="text;html=1;align=center;verticalAlign=middle;whiteSpace=wrap;rounded=0;" vertex="1" parent="wSDJM-9C2P7-PzqC946q-45">
          <mxGeometry x="30" y="15" width="60" height="30" as="geometry" />
        </mxCell>
        <mxCell id="wSDJM-9C2P7-PzqC946q-46" value="" style="endArrow=none;html=1;rounded=0;exitX=1;exitY=0.5;exitDx=0;exitDy=0;entryX=0;entryY=0.5;entryDx=0;entryDy=0;fillColor=#0050ef;strokeColor=#001DBC;" edge="1" parent="1" source="wSDJM-9C2P7-PzqC946q-7" target="wSDJM-9C2P7-PzqC946q-43">
          <mxGeometry width="50" height="50" relative="1" as="geometry">
            <mxPoint x="470" y="440" as="sourcePoint" />
            <mxPoint x="520" y="390" as="targetPoint" />
          </mxGeometry>
        </mxCell>
        <mxCell id="wSDJM-9C2P7-PzqC946q-47" value="" style="endArrow=none;html=1;rounded=0;entryX=1;entryY=0.5;entryDx=0;entryDy=0;exitX=0.5;exitY=0;exitDx=0;exitDy=0;fillColor=#0050ef;strokeColor=#001DBC;edgeStyle=orthogonalEdgeStyle;" edge="1" parent="1" source="wSDJM-9C2P7-PzqC946q-43" target="wSDJM-9C2P7-PzqC946q-18">
          <mxGeometry width="50" height="50" relative="1" as="geometry">
            <mxPoint x="470" y="440" as="sourcePoint" />
            <mxPoint x="520" y="390" as="targetPoint" />
          </mxGeometry>
        </mxCell>
        <mxCell id="wSDJM-9C2P7-PzqC946q-48" value="" style="endArrow=none;html=1;rounded=0;exitX=1;exitY=0.5;exitDx=0;exitDy=0;entryX=0.5;entryY=1;entryDx=0;entryDy=0;edgeStyle=orthogonalEdgeStyle;fillColor=#0050ef;strokeColor=#001DBC;" edge="1" parent="1" source="wSDJM-9C2P7-PzqC946q-43" target="wSDJM-9C2P7-PzqC946q-30">
          <mxGeometry width="50" height="50" relative="1" as="geometry">
            <mxPoint x="470" y="440" as="sourcePoint" />
            <mxPoint x="520" y="390" as="targetPoint" />
          </mxGeometry>
        </mxCell>
        <mxCell id="wSDJM-9C2P7-PzqC946q-53" value="" style="endArrow=none;html=1;rounded=0;entryX=0;entryY=0.5;entryDx=0;entryDy=0;exitX=1;exitY=0.25;exitDx=0;exitDy=0;fillColor=#0050ef;strokeColor=#001DBC;edgeStyle=orthogonalEdgeStyle;" edge="1" parent="1" source="wSDJM-9C2P7-PzqC946q-30" target="wSDJM-9C2P7-PzqC946q-26">
          <mxGeometry width="50" height="50" relative="1" as="geometry">
            <mxPoint x="690" y="440" as="sourcePoint" />
            <mxPoint x="740" y="390" as="targetPoint" />
          </mxGeometry>
        </mxCell>
        <mxCell id="wSDJM-9C2P7-PzqC946q-54" value="" style="group;rotation=90;" vertex="1" connectable="0" parent="1">
          <mxGeometry x="820" y="340" width="100" height="40" as="geometry" />
        </mxCell>
        <mxCell id="wSDJM-9C2P7-PzqC946q-55" value="" style="rounded=0;whiteSpace=wrap;html=1;rotation=90;" vertex="1" parent="wSDJM-9C2P7-PzqC946q-54">
          <mxGeometry x="-18.333333333333336" y="-1.2307692307692308" width="100" height="40" as="geometry" />
        </mxCell>
        <mxCell id="wSDJM-9C2P7-PzqC946q-56" value="&lt;div&gt;Manifold&lt;/div&gt;" style="text;html=1;align=center;verticalAlign=middle;whiteSpace=wrap;rounded=0;rotation=90;" vertex="1" parent="wSDJM-9C2P7-PzqC946q-54">
          <mxGeometry x="6.666666666666667" y="9.846153846153847" width="50" height="18.461538461538463" as="geometry" />
        </mxCell>
        <mxCell id="wSDJM-9C2P7-PzqC946q-57" value="" style="endArrow=none;html=1;rounded=0;entryX=0.5;entryY=1;entryDx=0;entryDy=0;exitX=1;exitY=0.75;exitDx=0;exitDy=0;fillColor=#0050ef;strokeColor=#001DBC;edgeStyle=orthogonalEdgeStyle;" edge="1" parent="1" source="wSDJM-9C2P7-PzqC946q-30" target="wSDJM-9C2P7-PzqC946q-55">
          <mxGeometry width="50" height="50" relative="1" as="geometry">
            <mxPoint x="690" y="440" as="sourcePoint" />
            <mxPoint x="740" y="390" as="targetPoint" />
          </mxGeometry>
        </mxCell>
        <mxCell id="wSDJM-9C2P7-PzqC946q-58" value="" style="endArrow=none;html=1;rounded=0;entryX=0.75;entryY=0;entryDx=0;entryDy=0;exitX=0;exitY=0.5;exitDx=0;exitDy=0;fillColor=#0050ef;strokeColor=#001DBC;" edge="1" parent="1" source="wSDJM-9C2P7-PzqC946q-21" target="wSDJM-9C2P7-PzqC946q-55">
          <mxGeometry width="50" height="50" relative="1" as="geometry">
            <mxPoint x="690" y="440" as="sourcePoint" />
            <mxPoint x="740" y="390" as="targetPoint" />
          </mxGeometry>
        </mxCell>
        <mxCell id="wSDJM-9C2P7-PzqC946q-59" value="" style="endArrow=none;html=1;rounded=0;entryX=0.25;entryY=0;entryDx=0;entryDy=0;exitX=0;exitY=0.5;exitDx=0;exitDy=0;fillColor=#0050ef;strokeColor=#001DBC;" edge="1" parent="1" source="wSDJM-9C2P7-PzqC946q-24" target="wSDJM-9C2P7-PzqC946q-55">
          <mxGeometry width="50" height="50" relative="1" as="geometry">
            <mxPoint x="690" y="440" as="sourcePoint" />
            <mxPoint x="740" y="390" as="targetPoint" />
          </mxGeometry>
        </mxCell>
        <mxCell id="wSDJM-9C2P7-PzqC946q-60" value="" style="endArrow=none;html=1;rounded=0;exitX=1;exitY=0.5;exitDx=0;exitDy=0;entryX=0.25;entryY=1;entryDx=0;entryDy=0;edgeStyle=orthogonalEdgeStyle;fillColor=#e51400;strokeColor=#B20000;" edge="1" parent="1" source="wSDJM-9C2P7-PzqC946q-1" target="wSDJM-9C2P7-PzqC946q-18">
          <mxGeometry width="50" height="50" relative="1" as="geometry">
            <mxPoint x="420" y="440" as="sourcePoint" />
            <mxPoint x="470" y="390" as="targetPoint" />
          </mxGeometry>
        </mxCell>
        <mxCell id="wSDJM-9C2P7-PzqC946q-61" value="" style="endArrow=none;html=1;rounded=0;entryX=0;entryY=0.5;entryDx=0;entryDy=0;exitX=0.25;exitY=0;exitDx=0;exitDy=0;fillColor=#e51400;strokeColor=#B20000;edgeStyle=orthogonalEdgeStyle;" edge="1" parent="1" source="wSDJM-9C2P7-PzqC946q-16" target="wSDJM-9C2P7-PzqC946q-18">
          <mxGeometry width="50" height="50" relative="1" as="geometry">
            <mxPoint x="420" y="440" as="sourcePoint" />
            <mxPoint x="470" y="390" as="targetPoint" />
          </mxGeometry>
        </mxCell>
        <mxCell id="wSDJM-9C2P7-PzqC946q-62" value="" style="endArrow=none;html=1;rounded=0;exitX=1;exitY=0.5;exitDx=0;exitDy=0;entryX=0;entryY=0.5;entryDx=0;entryDy=0;fillColor=#e51400;strokeColor=#B20000;edgeStyle=orthogonalEdgeStyle;" edge="1" parent="1" source="wSDJM-9C2P7-PzqC946q-21" target="wSDJM-9C2P7-PzqC946q-16">
          <mxGeometry width="50" height="50" relative="1" as="geometry">
            <mxPoint x="610" y="440" as="sourcePoint" />
            <mxPoint x="660" y="390" as="targetPoint" />
            <Array as="points">
              <mxPoint x="1080" y="395" />
              <mxPoint x="1080" y="130" />
              <mxPoint x="260" y="130" />
            </Array>
          </mxGeometry>
        </mxCell>
        <mxCell id="wSDJM-9C2P7-PzqC946q-63" value="" style="endArrow=none;html=1;rounded=0;exitX=1;exitY=0.5;exitDx=0;exitDy=0;entryX=0;entryY=0.25;entryDx=0;entryDy=0;fillColor=#e51400;strokeColor=#B20000;edgeStyle=orthogonalEdgeStyle;" edge="1" parent="1" source="wSDJM-9C2P7-PzqC946q-24" target="wSDJM-9C2P7-PzqC946q-16">
          <mxGeometry width="50" height="50" relative="1" as="geometry">
            <mxPoint x="610" y="440" as="sourcePoint" />
            <mxPoint x="660" y="390" as="targetPoint" />
            <Array as="points">
              <mxPoint x="1070" y="320" />
              <mxPoint x="1070" y="150" />
              <mxPoint x="276" y="150" />
            </Array>
          </mxGeometry>
        </mxCell>
        <mxCell id="wSDJM-9C2P7-PzqC946q-64" value="" style="endArrow=none;html=1;rounded=0;exitX=1;exitY=0.5;exitDx=0;exitDy=0;entryX=0;entryY=0;entryDx=0;entryDy=0;fillColor=#e51400;strokeColor=#B20000;edgeStyle=orthogonalEdgeStyle;" edge="1" parent="1" source="wSDJM-9C2P7-PzqC946q-26" target="wSDJM-9C2P7-PzqC946q-16">
          <mxGeometry width="50" height="50" relative="1" as="geometry">
            <mxPoint x="610" y="440" as="sourcePoint" />
            <mxPoint x="660" y="390" as="targetPoint" />
            <Array as="points">
              <mxPoint x="1060" y="245" />
              <mxPoint x="1060" y="170" />
              <mxPoint x="293" y="170" />
            </Array>
          </mxGeometry>
        </mxCell>
        <mxCell id="wSDJM-9C2P7-PzqC946q-65" value="" style="endArrow=none;html=1;rounded=0;exitX=1;exitY=0;exitDx=0;exitDy=0;fillColor=#e51400;strokeColor=#B20000;edgeStyle=orthogonalEdgeStyle;" edge="1" parent="1" source="wSDJM-9C2P7-PzqC946q-1">
          <mxGeometry width="50" height="50" relative="1" as="geometry">
            <mxPoint x="200" y="440" as="sourcePoint" />
            <mxPoint x="230" y="340" as="targetPoint" />
            <Array as="points">
              <mxPoint x="170" y="270" />
              <mxPoint x="200" y="270" />
              <mxPoint x="200" y="341" />
            </Array>
          </mxGeometry>
        </mxCell>
      </root>
    </mxGraphModel>
  </diagram>
</mxfile>
